# Tiled2Unity generated file. Do not modify by hand.
# Wavefront file for 'Test-A_mesh_0002.obj'

# Vertices (Count = 272)
v -144 -96 0
v -192 -96 0
v -192 -48 0
v -144 -48 0
v -192 -96 0
v -240 -96 0
v -240 -48 0
v -192 -48 0
v -240 -96 0
v -288 -96 0
v -288 -48 0
v -240 -48 0
v -624 -96 0
v -672 -96 0
v -672 -48 0
v -624 -48 0
v -672 -96 0
v -720 -96 0
v -720 -48 0
v -672 -48 0
v -720 -96 0
v -768 -96 0
v -768 -48 0
v -720 -48 0
v -48 -144 0
v -96 -144 0
v -96 -96 0
v -48 -96 0
v -144 -144 0
v -192 -144 0
v -192 -96 0
v -144 -96 0
v -192 -144 0
v -240 -144 0
v -240 -96 0
v -192 -96 0
v -240 -144 0
v -288 -144 0
v -288 -96 0
v -240 -96 0
v -480 -144 0
v -528 -144 0
v -528 -96 0
v -480 -96 0
v -528 -144 0
v -576 -144 0
v -576 -96 0
v -528 -96 0
v -624 -144 0
v -672 -144 0
v -672 -96 0
v -624 -96 0
v -672 -144 0
v -720 -144 0
v -720 -96 0
v -672 -96 0
v -720 -144 0
v -768 -144 0
v -768 -96 0
v -720 -96 0
v -144 -192 0
v -192 -192 0
v -192 -144 0
v -144 -144 0
v -192 -192 0
v -240 -192 0
v -240 -144 0
v -192 -144 0
v -240 -192 0
v -288 -192 0
v -288 -144 0
v -240 -144 0
v -336 -192 0
v -384 -192 0
v -384 -144 0
v -336 -144 0
v -624 -192 0
v -672 -192 0
v -672 -144 0
v -624 -144 0
v -672 -192 0
v -720 -192 0
v -720 -144 0
v -672 -144 0
v -720 -192 0
v -768 -192 0
v -768 -144 0
v -720 -144 0
v -144 -240 0
v -192 -240 0
v -192 -192 0
v -144 -192 0
v -192 -240 0
v -240 -240 0
v -240 -192 0
v -192 -192 0
v -240 -240 0
v -288 -240 0
v -288 -192 0
v -240 -192 0
v -624 -240 0
v -672 -240 0
v -672 -192 0
v -624 -192 0
v -672 -240 0
v -720 -240 0
v -720 -192 0
v -672 -192 0
v -720 -240 0
v -768 -240 0
v -768 -192 0
v -720 -192 0
v -48 -336 0
v -96 -336 0
v -96 -288 0
v -48 -288 0
v -96 -336 0
v -144 -336 0
v -144 -288 0
v -96 -288 0
v -144 -336 0
v -192 -336 0
v -192 -288 0
v -144 -288 0
v -192 -336 0
v -240 -336 0
v -240 -288 0
v -192 -288 0
v -240 -336 0
v -288 -336 0
v -288 -288 0
v -240 -288 0
v -624 -336 0
v -672 -336 0
v -672 -288 0
v -624 -288 0
v -720 -336 0
v -768 -336 0
v -768 -288 0
v -720 -288 0
v -768 -336 0
v -816 -336 0
v -816 -288 0
v -768 -288 0
v -48 -384 0
v -96 -384 0
v -96 -336 0
v -48 -336 0
v -96 -384 0
v -144 -384 0
v -144 -336 0
v -96 -336 0
v -144 -384 0
v -192 -384 0
v -192 -336 0
v -144 -336 0
v -384 -384 0
v -432 -384 0
v -432 -336 0
v -384 -336 0
v -720 -384 0
v -768 -384 0
v -768 -336 0
v -720 -336 0
v -768 -384 0
v -816 -384 0
v -816 -336 0
v -768 -336 0
v -48 -432 0
v -96 -432 0
v -96 -384 0
v -48 -384 0
v -96 -432 0
v -144 -432 0
v -144 -384 0
v -96 -384 0
v -144 -432 0
v -192 -432 0
v -192 -384 0
v -144 -384 0
v -528 -432 0
v -576 -432 0
v -576 -384 0
v -528 -384 0
v -576 -432 0
v -624 -432 0
v -624 -384 0
v -576 -384 0
v -720 -432 0
v -768 -432 0
v -768 -384 0
v -720 -384 0
v -768 -432 0
v -816 -432 0
v -816 -384 0
v -768 -384 0
v -48 -480 0
v -96 -480 0
v -96 -432 0
v -48 -432 0
v -96 -480 0
v -144 -480 0
v -144 -432 0
v -96 -432 0
v -144 -480 0
v -192 -480 0
v -192 -432 0
v -144 -432 0
v -192 -480 0
v -240 -480 0
v -240 -432 0
v -192 -432 0
v -720 -480 0
v -768 -480 0
v -768 -432 0
v -720 -432 0
v -768 -480 0
v -816 -480 0
v -816 -432 0
v -768 -432 0
v -672 -528 0
v -720 -528 0
v -720 -480 0
v -672 -480 0
v -144 -576 0
v -192 -576 0
v -192 -528 0
v -144 -528 0
v -192 -576 0
v -240 -576 0
v -240 -528 0
v -192 -528 0
v -240 -576 0
v -288 -576 0
v -288 -528 0
v -240 -528 0
v -528 -576 0
v -576 -576 0
v -576 -528 0
v -528 -528 0
v -576 -576 0
v -624 -576 0
v -624 -528 0
v -576 -528 0
v -624 -576 0
v -672 -576 0
v -672 -528 0
v -624 -528 0
v -144 -624 0
v -192 -624 0
v -192 -576 0
v -144 -576 0
v -192 -624 0
v -240 -624 0
v -240 -576 0
v -192 -576 0
v -240 -624 0
v -288 -624 0
v -288 -576 0
v -240 -576 0
v -528 -624 0
v -576 -624 0
v -576 -576 0
v -528 -576 0
v -576 -624 0
v -624 -624 0
v -624 -576 0
v -576 -576 0
v -624 -624 0
v -672 -624 0
v -672 -576 0
v -624 -576 0

# Texture cooridinates (Count = 59)
vt 0 0.9375
vt 0.0625 0.9375
vt 0.0625 1
vt 0 1
vt 0.125 0.9375
vt 0.125 1
vt 0.1875 0.9375
vt 0.1875 1
vt 0.4375 0.625
vt 0.5 0.625
vt 0.5 0.6875
vt 0.4375 0.6875
vt 0 0.875
vt 0.0625 0.875
vt 0.125 0.875
vt 0.1875 0.875
vt 0.375 0.6875
vt 0.4375 0.75
vt 0.375 0.75
vt 0.5 0.75
vt 0 0.8125
vt 0.0625 0.8125
vt 0.125 0.8125
vt 0.1875 0.8125
vt 0.5 0.875
vt 0.5625 0.875
vt 0.5625 0.9375
vt 0.5 0.9375
vt 0 0.75
vt 0.0625 0.75
vt 0.125 0.75
vt 0.1875 0.75
vt 0.25 0.9375
vt 0.25 1
vt 0.3125 0.9375
vt 0.3125 1
vt 0.0625 0.5
vt 0.125 0.5
vt 0.125 0.5625
vt 0.0625 0.5625
vt 0.25 0.875
vt 0.3125 0.875
vt 0.25 0.8125
vt 0.3125 0.8125
vt 0.25 0.75
vt 0.3125 0.75
vt 0.1875 0.6875
vt 0.25 0.6875
vt 0.3125 0.6875
vt 0 0.6875
vt 0.0625 0.6875
vt 0.125 0.6875
vt 0.1875 0.625
vt 0.25 0.625
vt 0.3125 0.625
vt 0.375 0.625
vt 0 0.625
vt 0.0625 0.625
vt 0.125 0.625

# Normal
vn 0 0 -1

# Mesh description
g Test-A_mesh_0002

# Faces
f 1/1/1 2/2/1 3/3/1 4/4/1
f 5/2/1 6/5/1 7/6/1 8/3/1
f 9/5/1 10/7/1 11/8/1 12/6/1
f 13/1/1 14/2/1 15/3/1 16/4/1
f 17/2/1 18/5/1 19/6/1 20/3/1
f 21/5/1 22/7/1 23/8/1 24/6/1
f 25/9/1 26/10/1 27/11/1 28/12/1
f 29/13/1 30/14/1 31/2/1 32/1/1
f 33/14/1 34/15/1 35/5/1 36/2/1
f 37/15/1 38/16/1 39/7/1 40/5/1
f 41/17/1 42/12/1 43/18/1 44/19/1
f 45/12/1 46/11/1 47/20/1 48/18/1
f 49/13/1 50/14/1 51/2/1 52/1/1
f 53/14/1 54/15/1 55/5/1 56/2/1
f 57/15/1 58/16/1 59/7/1 60/5/1
f 61/21/1 62/22/1 63/14/1 64/13/1
f 65/22/1 66/23/1 67/15/1 68/14/1
f 69/23/1 70/24/1 71/16/1 72/15/1
f 73/25/1 74/26/1 75/27/1 76/28/1
f 77/21/1 78/22/1 79/14/1 80/13/1
f 81/22/1 82/23/1 83/15/1 84/14/1
f 85/23/1 86/24/1 87/16/1 88/15/1
f 89/29/1 90/30/1 91/22/1 92/21/1
f 93/30/1 94/31/1 95/23/1 96/22/1
f 97/31/1 98/32/1 99/24/1 100/23/1
f 101/29/1 102/30/1 103/22/1 104/21/1
f 105/30/1 106/31/1 107/23/1 108/22/1
f 109/31/1 110/32/1 111/24/1 112/23/1
f 113/1/1 114/2/1 115/3/1 116/4/1
f 117/2/1 118/5/1 119/6/1 120/3/1
f 121/5/1 122/7/1 123/8/1 124/6/1
f 125/17/1 126/12/1 127/18/1 128/19/1
f 129/12/1 130/11/1 131/20/1 132/18/1
f 133/9/1 134/10/1 135/11/1 136/12/1
f 137/7/1 138/33/1 139/34/1 140/8/1
f 141/33/1 142/35/1 143/36/1 144/34/1
f 145/13/1 146/14/1 147/2/1 148/1/1
f 149/14/1 150/15/1 151/5/1 152/2/1
f 153/15/1 154/16/1 155/7/1 156/5/1
f 157/37/1 158/38/1 159/39/1 160/40/1
f 161/16/1 162/41/1 163/33/1 164/7/1
f 165/41/1 166/42/1 167/35/1 168/33/1
f 169/21/1 170/22/1 171/14/1 172/13/1
f 173/22/1 174/23/1 175/15/1 176/14/1
f 177/23/1 178/24/1 179/16/1 180/15/1
f 181/17/1 182/12/1 183/18/1 184/19/1
f 185/12/1 186/11/1 187/20/1 188/18/1
f 189/24/1 190/43/1 191/41/1 192/16/1
f 193/43/1 194/44/1 195/42/1 196/41/1
f 197/29/1 198/30/1 199/22/1 200/21/1
f 201/30/1 202/31/1 203/23/1 204/22/1
f 205/31/1 206/32/1 207/24/1 208/23/1
f 209/9/1 210/10/1 211/11/1 212/12/1
f 213/32/1 214/45/1 215/43/1 216/24/1
f 217/45/1 218/46/1 219/44/1 220/43/1
f 221/9/1 222/10/1 223/11/1 224/12/1
f 225/47/1 226/48/1 227/45/1 228/32/1
f 229/48/1 230/49/1 231/46/1 232/45/1
f 233/49/1 234/17/1 235/19/1 236/46/1
f 237/50/1 238/51/1 239/30/1 240/29/1
f 241/51/1 242/52/1 243/31/1 244/30/1
f 245/52/1 246/47/1 247/32/1 248/31/1
f 249/53/1 250/54/1 251/48/1 252/47/1
f 253/54/1 254/55/1 255/49/1 256/48/1
f 257/55/1 258/56/1 259/17/1 260/49/1
f 261/57/1 262/58/1 263/51/1 264/50/1
f 265/58/1 266/59/1 267/52/1 268/51/1
f 269/59/1 270/53/1 271/47/1 272/52/1

