# Tiled2Unity generated file. Do not modify by hand.
# Wavefront file for 'Test-A_mesh_0001.obj'

# Vertices (Count = 884)
v 0 -48 0
v -48 -48 0
v -48 0 0
v 0 0 0
v -48 -48 0
v -96 -48 0
v -96 0 0
v -48 0 0
v -96 -48 0
v -144 -48 0
v -144 0 0
v -96 0 0
v -144 -48 0
v -192 -48 0
v -192 0 0
v -144 0 0
v -192 -48 0
v -240 -48 0
v -240 0 0
v -192 0 0
v -240 -48 0
v -288 -48 0
v -288 0 0
v -240 0 0
v -288 -48 0
v -336 -48 0
v -336 0 0
v -288 0 0
v -336 -48 0
v -384 -48 0
v -384 0 0
v -336 0 0
v -384 -48 0
v -432 -48 0
v -432 0 0
v -384 0 0
v -432 -48 0
v -480 -48 0
v -480 0 0
v -432 0 0
v -480 -48 0
v -528 -48 0
v -528 0 0
v -480 0 0
v -528 -48 0
v -576 -48 0
v -576 0 0
v -528 0 0
v -576 -48 0
v -624 -48 0
v -624 0 0
v -576 0 0
v -624 -48 0
v -672 -48 0
v -672 0 0
v -624 0 0
v -672 -48 0
v -720 -48 0
v -720 0 0
v -672 0 0
v -720 -48 0
v -768 -48 0
v -768 0 0
v -720 0 0
v -768 -48 0
v -816 -48 0
v -816 0 0
v -768 0 0
v 0 -96 0
v -48 -96 0
v -48 -48 0
v 0 -48 0
v -48 -96 0
v -96 -96 0
v -96 -48 0
v -48 -48 0
v -96 -96 0
v -144 -96 0
v -144 -48 0
v -96 -48 0
v -144 -96 0
v -192 -96 0
v -192 -48 0
v -144 -48 0
v -192 -96 0
v -240 -96 0
v -240 -48 0
v -192 -48 0
v -240 -96 0
v -288 -96 0
v -288 -48 0
v -240 -48 0
v -288 -96 0
v -336 -96 0
v -336 -48 0
v -288 -48 0
v -336 -96 0
v -384 -96 0
v -384 -48 0
v -336 -48 0
v -384 -96 0
v -432 -96 0
v -432 -48 0
v -384 -48 0
v -432 -96 0
v -480 -96 0
v -480 -48 0
v -432 -48 0
v -480 -96 0
v -528 -96 0
v -528 -48 0
v -480 -48 0
v -528 -96 0
v -576 -96 0
v -576 -48 0
v -528 -48 0
v -576 -96 0
v -624 -96 0
v -624 -48 0
v -576 -48 0
v -624 -96 0
v -672 -96 0
v -672 -48 0
v -624 -48 0
v -672 -96 0
v -720 -96 0
v -720 -48 0
v -672 -48 0
v -720 -96 0
v -768 -96 0
v -768 -48 0
v -720 -48 0
v -768 -96 0
v -816 -96 0
v -816 -48 0
v -768 -48 0
v 0 -144 0
v -48 -144 0
v -48 -96 0
v 0 -96 0
v -48 -144 0
v -96 -144 0
v -96 -96 0
v -48 -96 0
v -96 -144 0
v -144 -144 0
v -144 -96 0
v -96 -96 0
v -144 -144 0
v -192 -144 0
v -192 -96 0
v -144 -96 0
v -192 -144 0
v -240 -144 0
v -240 -96 0
v -192 -96 0
v -240 -144 0
v -288 -144 0
v -288 -96 0
v -240 -96 0
v -288 -144 0
v -336 -144 0
v -336 -96 0
v -288 -96 0
v -336 -144 0
v -384 -144 0
v -384 -96 0
v -336 -96 0
v -384 -144 0
v -432 -144 0
v -432 -96 0
v -384 -96 0
v -432 -144 0
v -480 -144 0
v -480 -96 0
v -432 -96 0
v -480 -144 0
v -528 -144 0
v -528 -96 0
v -480 -96 0
v -528 -144 0
v -576 -144 0
v -576 -96 0
v -528 -96 0
v -576 -144 0
v -624 -144 0
v -624 -96 0
v -576 -96 0
v -624 -144 0
v -672 -144 0
v -672 -96 0
v -624 -96 0
v -672 -144 0
v -720 -144 0
v -720 -96 0
v -672 -96 0
v -720 -144 0
v -768 -144 0
v -768 -96 0
v -720 -96 0
v -768 -144 0
v -816 -144 0
v -816 -96 0
v -768 -96 0
v 0 -192 0
v -48 -192 0
v -48 -144 0
v 0 -144 0
v -48 -192 0
v -96 -192 0
v -96 -144 0
v -48 -144 0
v -96 -192 0
v -144 -192 0
v -144 -144 0
v -96 -144 0
v -144 -192 0
v -192 -192 0
v -192 -144 0
v -144 -144 0
v -192 -192 0
v -240 -192 0
v -240 -144 0
v -192 -144 0
v -240 -192 0
v -288 -192 0
v -288 -144 0
v -240 -144 0
v -288 -192 0
v -336 -192 0
v -336 -144 0
v -288 -144 0
v -336 -192 0
v -384 -192 0
v -384 -144 0
v -336 -144 0
v -384 -192 0
v -432 -192 0
v -432 -144 0
v -384 -144 0
v -432 -192 0
v -480 -192 0
v -480 -144 0
v -432 -144 0
v -480 -192 0
v -528 -192 0
v -528 -144 0
v -480 -144 0
v -528 -192 0
v -576 -192 0
v -576 -144 0
v -528 -144 0
v -576 -192 0
v -624 -192 0
v -624 -144 0
v -576 -144 0
v -624 -192 0
v -672 -192 0
v -672 -144 0
v -624 -144 0
v -672 -192 0
v -720 -192 0
v -720 -144 0
v -672 -144 0
v -720 -192 0
v -768 -192 0
v -768 -144 0
v -720 -144 0
v -768 -192 0
v -816 -192 0
v -816 -144 0
v -768 -144 0
v 0 -240 0
v -48 -240 0
v -48 -192 0
v 0 -192 0
v -48 -240 0
v -96 -240 0
v -96 -192 0
v -48 -192 0
v -96 -240 0
v -144 -240 0
v -144 -192 0
v -96 -192 0
v -144 -240 0
v -192 -240 0
v -192 -192 0
v -144 -192 0
v -192 -240 0
v -240 -240 0
v -240 -192 0
v -192 -192 0
v -240 -240 0
v -288 -240 0
v -288 -192 0
v -240 -192 0
v -288 -240 0
v -336 -240 0
v -336 -192 0
v -288 -192 0
v -336 -240 0
v -384 -240 0
v -384 -192 0
v -336 -192 0
v -384 -240 0
v -432 -240 0
v -432 -192 0
v -384 -192 0
v -432 -240 0
v -480 -240 0
v -480 -192 0
v -432 -192 0
v -480 -240 0
v -528 -240 0
v -528 -192 0
v -480 -192 0
v -528 -240 0
v -576 -240 0
v -576 -192 0
v -528 -192 0
v -576 -240 0
v -624 -240 0
v -624 -192 0
v -576 -192 0
v -624 -240 0
v -672 -240 0
v -672 -192 0
v -624 -192 0
v -672 -240 0
v -720 -240 0
v -720 -192 0
v -672 -192 0
v -720 -240 0
v -768 -240 0
v -768 -192 0
v -720 -192 0
v -768 -240 0
v -816 -240 0
v -816 -192 0
v -768 -192 0
v 0 -288 0
v -48 -288 0
v -48 -240 0
v 0 -240 0
v -48 -288 0
v -96 -288 0
v -96 -240 0
v -48 -240 0
v -96 -288 0
v -144 -288 0
v -144 -240 0
v -96 -240 0
v -144 -288 0
v -192 -288 0
v -192 -240 0
v -144 -240 0
v -192 -288 0
v -240 -288 0
v -240 -240 0
v -192 -240 0
v -240 -288 0
v -288 -288 0
v -288 -240 0
v -240 -240 0
v -288 -288 0
v -336 -288 0
v -336 -240 0
v -288 -240 0
v -336 -288 0
v -384 -288 0
v -384 -240 0
v -336 -240 0
v -384 -288 0
v -432 -288 0
v -432 -240 0
v -384 -240 0
v -432 -288 0
v -480 -288 0
v -480 -240 0
v -432 -240 0
v -480 -288 0
v -528 -288 0
v -528 -240 0
v -480 -240 0
v -528 -288 0
v -576 -288 0
v -576 -240 0
v -528 -240 0
v -576 -288 0
v -624 -288 0
v -624 -240 0
v -576 -240 0
v -624 -288 0
v -672 -288 0
v -672 -240 0
v -624 -240 0
v -672 -288 0
v -720 -288 0
v -720 -240 0
v -672 -240 0
v -720 -288 0
v -768 -288 0
v -768 -240 0
v -720 -240 0
v -768 -288 0
v -816 -288 0
v -816 -240 0
v -768 -240 0
v 0 -336 0
v -48 -336 0
v -48 -288 0
v 0 -288 0
v -48 -336 0
v -96 -336 0
v -96 -288 0
v -48 -288 0
v -96 -336 0
v -144 -336 0
v -144 -288 0
v -96 -288 0
v -144 -336 0
v -192 -336 0
v -192 -288 0
v -144 -288 0
v -192 -336 0
v -240 -336 0
v -240 -288 0
v -192 -288 0
v -240 -336 0
v -288 -336 0
v -288 -288 0
v -240 -288 0
v -288 -336 0
v -336 -336 0
v -336 -288 0
v -288 -288 0
v -336 -336 0
v -384 -336 0
v -384 -288 0
v -336 -288 0
v -384 -336 0
v -432 -336 0
v -432 -288 0
v -384 -288 0
v -432 -336 0
v -480 -336 0
v -480 -288 0
v -432 -288 0
v -480 -336 0
v -528 -336 0
v -528 -288 0
v -480 -288 0
v -528 -336 0
v -576 -336 0
v -576 -288 0
v -528 -288 0
v -576 -336 0
v -624 -336 0
v -624 -288 0
v -576 -288 0
v -624 -336 0
v -672 -336 0
v -672 -288 0
v -624 -288 0
v -672 -336 0
v -720 -336 0
v -720 -288 0
v -672 -288 0
v -720 -336 0
v -768 -336 0
v -768 -288 0
v -720 -288 0
v -768 -336 0
v -816 -336 0
v -816 -288 0
v -768 -288 0
v 0 -384 0
v -48 -384 0
v -48 -336 0
v 0 -336 0
v -48 -384 0
v -96 -384 0
v -96 -336 0
v -48 -336 0
v -96 -384 0
v -144 -384 0
v -144 -336 0
v -96 -336 0
v -144 -384 0
v -192 -384 0
v -192 -336 0
v -144 -336 0
v -192 -384 0
v -240 -384 0
v -240 -336 0
v -192 -336 0
v -240 -384 0
v -288 -384 0
v -288 -336 0
v -240 -336 0
v -288 -384 0
v -336 -384 0
v -336 -336 0
v -288 -336 0
v -336 -384 0
v -384 -384 0
v -384 -336 0
v -336 -336 0
v -384 -384 0
v -432 -384 0
v -432 -336 0
v -384 -336 0
v -432 -384 0
v -480 -384 0
v -480 -336 0
v -432 -336 0
v -480 -384 0
v -528 -384 0
v -528 -336 0
v -480 -336 0
v -528 -384 0
v -576 -384 0
v -576 -336 0
v -528 -336 0
v -576 -384 0
v -624 -384 0
v -624 -336 0
v -576 -336 0
v -624 -384 0
v -672 -384 0
v -672 -336 0
v -624 -336 0
v -672 -384 0
v -720 -384 0
v -720 -336 0
v -672 -336 0
v -720 -384 0
v -768 -384 0
v -768 -336 0
v -720 -336 0
v -768 -384 0
v -816 -384 0
v -816 -336 0
v -768 -336 0
v 0 -432 0
v -48 -432 0
v -48 -384 0
v 0 -384 0
v -48 -432 0
v -96 -432 0
v -96 -384 0
v -48 -384 0
v -96 -432 0
v -144 -432 0
v -144 -384 0
v -96 -384 0
v -144 -432 0
v -192 -432 0
v -192 -384 0
v -144 -384 0
v -192 -432 0
v -240 -432 0
v -240 -384 0
v -192 -384 0
v -240 -432 0
v -288 -432 0
v -288 -384 0
v -240 -384 0
v -288 -432 0
v -336 -432 0
v -336 -384 0
v -288 -384 0
v -336 -432 0
v -384 -432 0
v -384 -384 0
v -336 -384 0
v -384 -432 0
v -432 -432 0
v -432 -384 0
v -384 -384 0
v -432 -432 0
v -480 -432 0
v -480 -384 0
v -432 -384 0
v -480 -432 0
v -528 -432 0
v -528 -384 0
v -480 -384 0
v -528 -432 0
v -576 -432 0
v -576 -384 0
v -528 -384 0
v -576 -432 0
v -624 -432 0
v -624 -384 0
v -576 -384 0
v -624 -432 0
v -672 -432 0
v -672 -384 0
v -624 -384 0
v -672 -432 0
v -720 -432 0
v -720 -384 0
v -672 -384 0
v -720 -432 0
v -768 -432 0
v -768 -384 0
v -720 -384 0
v -768 -432 0
v -816 -432 0
v -816 -384 0
v -768 -384 0
v 0 -480 0
v -48 -480 0
v -48 -432 0
v 0 -432 0
v -48 -480 0
v -96 -480 0
v -96 -432 0
v -48 -432 0
v -96 -480 0
v -144 -480 0
v -144 -432 0
v -96 -432 0
v -144 -480 0
v -192 -480 0
v -192 -432 0
v -144 -432 0
v -192 -480 0
v -240 -480 0
v -240 -432 0
v -192 -432 0
v -240 -480 0
v -288 -480 0
v -288 -432 0
v -240 -432 0
v -288 -480 0
v -336 -480 0
v -336 -432 0
v -288 -432 0
v -336 -480 0
v -384 -480 0
v -384 -432 0
v -336 -432 0
v -384 -480 0
v -432 -480 0
v -432 -432 0
v -384 -432 0
v -432 -480 0
v -480 -480 0
v -480 -432 0
v -432 -432 0
v -480 -480 0
v -528 -480 0
v -528 -432 0
v -480 -432 0
v -528 -480 0
v -576 -480 0
v -576 -432 0
v -528 -432 0
v -576 -480 0
v -624 -480 0
v -624 -432 0
v -576 -432 0
v -624 -480 0
v -672 -480 0
v -672 -432 0
v -624 -432 0
v -672 -480 0
v -720 -480 0
v -720 -432 0
v -672 -432 0
v -720 -480 0
v -768 -480 0
v -768 -432 0
v -720 -432 0
v -768 -480 0
v -816 -480 0
v -816 -432 0
v -768 -432 0
v 0 -528 0
v -48 -528 0
v -48 -480 0
v 0 -480 0
v -48 -528 0
v -96 -528 0
v -96 -480 0
v -48 -480 0
v -96 -528 0
v -144 -528 0
v -144 -480 0
v -96 -480 0
v -144 -528 0
v -192 -528 0
v -192 -480 0
v -144 -480 0
v -192 -528 0
v -240 -528 0
v -240 -480 0
v -192 -480 0
v -240 -528 0
v -288 -528 0
v -288 -480 0
v -240 -480 0
v -288 -528 0
v -336 -528 0
v -336 -480 0
v -288 -480 0
v -336 -528 0
v -384 -528 0
v -384 -480 0
v -336 -480 0
v -384 -528 0
v -432 -528 0
v -432 -480 0
v -384 -480 0
v -432 -528 0
v -480 -528 0
v -480 -480 0
v -432 -480 0
v -480 -528 0
v -528 -528 0
v -528 -480 0
v -480 -480 0
v -528 -528 0
v -576 -528 0
v -576 -480 0
v -528 -480 0
v -576 -528 0
v -624 -528 0
v -624 -480 0
v -576 -480 0
v -624 -528 0
v -672 -528 0
v -672 -480 0
v -624 -480 0
v -672 -528 0
v -720 -528 0
v -720 -480 0
v -672 -480 0
v -720 -528 0
v -768 -528 0
v -768 -480 0
v -720 -480 0
v -768 -528 0
v -816 -528 0
v -816 -480 0
v -768 -480 0
v 0 -576 0
v -48 -576 0
v -48 -528 0
v 0 -528 0
v -48 -576 0
v -96 -576 0
v -96 -528 0
v -48 -528 0
v -96 -576 0
v -144 -576 0
v -144 -528 0
v -96 -528 0
v -144 -576 0
v -192 -576 0
v -192 -528 0
v -144 -528 0
v -192 -576 0
v -240 -576 0
v -240 -528 0
v -192 -528 0
v -240 -576 0
v -288 -576 0
v -288 -528 0
v -240 -528 0
v -288 -576 0
v -336 -576 0
v -336 -528 0
v -288 -528 0
v -336 -576 0
v -384 -576 0
v -384 -528 0
v -336 -528 0
v -384 -576 0
v -432 -576 0
v -432 -528 0
v -384 -528 0
v -432 -576 0
v -480 -576 0
v -480 -528 0
v -432 -528 0
v -480 -576 0
v -528 -576 0
v -528 -528 0
v -480 -528 0
v -528 -576 0
v -576 -576 0
v -576 -528 0
v -528 -528 0
v -576 -576 0
v -624 -576 0
v -624 -528 0
v -576 -528 0
v -624 -576 0
v -672 -576 0
v -672 -528 0
v -624 -528 0
v -672 -576 0
v -720 -576 0
v -720 -528 0
v -672 -528 0
v -720 -576 0
v -768 -576 0
v -768 -528 0
v -720 -528 0
v -768 -576 0
v -816 -576 0
v -816 -528 0
v -768 -528 0
v 0 -624 0
v -48 -624 0
v -48 -576 0
v 0 -576 0
v -48 -624 0
v -96 -624 0
v -96 -576 0
v -48 -576 0
v -96 -624 0
v -144 -624 0
v -144 -576 0
v -96 -576 0
v -144 -624 0
v -192 -624 0
v -192 -576 0
v -144 -576 0
v -192 -624 0
v -240 -624 0
v -240 -576 0
v -192 -576 0
v -240 -624 0
v -288 -624 0
v -288 -576 0
v -240 -576 0
v -288 -624 0
v -336 -624 0
v -336 -576 0
v -288 -576 0
v -336 -624 0
v -384 -624 0
v -384 -576 0
v -336 -576 0
v -384 -624 0
v -432 -624 0
v -432 -576 0
v -384 -576 0
v -432 -624 0
v -480 -624 0
v -480 -576 0
v -432 -576 0
v -480 -624 0
v -528 -624 0
v -528 -576 0
v -480 -576 0
v -528 -624 0
v -576 -624 0
v -576 -576 0
v -528 -576 0
v -576 -624 0
v -624 -624 0
v -624 -576 0
v -576 -576 0
v -624 -624 0
v -672 -624 0
v -672 -576 0
v -624 -576 0
v -672 -624 0
v -720 -624 0
v -720 -576 0
v -672 -576 0
v -720 -624 0
v -768 -624 0
v -768 -576 0
v -720 -576 0
v -768 -624 0
v -816 -624 0
v -816 -576 0
v -768 -576 0

# Texture cooridinates (Count = 24)
vt 0 0.9375
vt 0.125 0.9375
vt 0.125 1
vt 0 1
vt 0 0.6875
vt 0.125 0.6875
vt 0.125 0.75
vt 0 0.75
vt 0.25 0.6875
vt 0.25 0.75
vt 0.25 0.9375
vt 0.25 1
vt 0 0.625
vt 0.125 0.625
vt 0.25 0.625
vt 0 0.875
vt 0.125 0.875
vt 0 0.5625
vt 0.125 0.5625
vt 0.25 0.5625
vt 0.25 0.875
vt 0.125 0.8125
vt 0.25 0.8125
vt 0 0.8125

# Normal
vn 0 0 -1

# Mesh description
g Test-A_mesh_0001

# Faces
f 1/1/1 2/2/1 3/3/1 4/4/1
f 5/1/1 6/2/1 7/3/1 8/4/1
f 9/1/1 10/2/1 11/3/1 12/4/1
f 13/1/1 14/2/1 15/3/1 16/4/1
f 17/1/1 18/2/1 19/3/1 20/4/1
f 21/1/1 22/2/1 23/3/1 24/4/1
f 25/1/1 26/2/1 27/3/1 28/4/1
f 29/5/1 30/6/1 31/7/1 32/8/1
f 33/6/1 34/9/1 35/10/1 36/7/1
f 37/5/1 38/6/1 39/7/1 40/8/1
f 41/1/1 42/2/1 43/3/1 44/4/1
f 45/1/1 46/2/1 47/3/1 48/4/1
f 49/1/1 50/2/1 51/3/1 52/4/1
f 53/1/1 54/2/1 55/3/1 56/4/1
f 57/1/1 58/2/1 59/3/1 60/4/1
f 61/1/1 62/2/1 63/3/1 64/4/1
f 65/1/1 66/2/1 67/3/1 68/4/1
f 69/1/1 70/2/1 71/3/1 72/4/1
f 73/1/1 74/2/1 75/3/1 76/4/1
f 77/2/1 78/11/1 79/12/1 80/3/1
f 81/2/1 82/11/1 83/12/1 84/3/1
f 85/2/1 86/11/1 87/12/1 88/3/1
f 89/2/1 90/11/1 91/12/1 92/3/1
f 93/2/1 94/11/1 95/12/1 96/3/1
f 97/13/1 98/14/1 99/6/1 100/5/1
f 101/14/1 102/15/1 103/9/1 104/6/1
f 105/13/1 106/14/1 107/6/1 108/5/1
f 109/2/1 110/11/1 111/12/1 112/3/1
f 113/2/1 114/11/1 115/12/1 116/3/1
f 117/2/1 118/11/1 119/12/1 120/3/1
f 121/2/1 122/11/1 123/12/1 124/3/1
f 125/2/1 126/11/1 127/12/1 128/3/1
f 129/2/1 130/11/1 131/12/1 132/3/1
f 133/2/1 134/11/1 135/12/1 136/3/1
f 137/16/1 138/17/1 139/2/1 140/1/1
f 141/16/1 142/17/1 143/2/1 144/1/1
f 145/1/1 146/2/1 147/3/1 148/4/1
f 149/1/1 150/2/1 151/3/1 152/4/1
f 153/1/1 154/2/1 155/3/1 156/4/1
f 157/2/1 158/11/1 159/12/1 160/3/1
f 161/2/1 162/11/1 163/12/1 164/3/1
f 165/18/1 166/19/1 167/14/1 168/13/1
f 169/19/1 170/20/1 171/15/1 172/14/1
f 173/18/1 174/19/1 175/14/1 176/13/1
f 177/2/1 178/11/1 179/12/1 180/3/1
f 181/2/1 182/11/1 183/12/1 184/3/1
f 185/2/1 186/11/1 187/12/1 188/3/1
f 189/1/1 190/2/1 191/3/1 192/4/1
f 193/2/1 194/11/1 195/12/1 196/3/1
f 197/17/1 198/21/1 199/11/1 200/2/1
f 201/17/1 202/21/1 203/11/1 204/2/1
f 205/2/1 206/11/1 207/12/1 208/3/1
f 209/2/1 210/11/1 211/12/1 212/3/1
f 213/2/1 214/11/1 215/12/1 216/3/1
f 217/2/1 218/11/1 219/12/1 220/3/1
f 221/2/1 222/11/1 223/12/1 224/3/1
f 225/2/1 226/11/1 227/12/1 228/3/1
f 229/2/1 230/11/1 231/12/1 232/3/1
f 233/5/1 234/6/1 235/7/1 236/8/1
f 237/6/1 238/9/1 239/10/1 240/7/1
f 241/5/1 242/6/1 243/7/1 244/8/1
f 245/17/1 246/21/1 247/11/1 248/2/1
f 249/17/1 250/21/1 251/11/1 252/2/1
f 253/17/1 254/21/1 255/11/1 256/2/1
f 257/2/1 258/11/1 259/12/1 260/3/1
f 261/2/1 262/11/1 263/12/1 264/3/1
f 265/2/1 266/11/1 267/12/1 268/3/1
f 269/2/1 270/11/1 271/12/1 272/3/1
f 273/17/1 274/21/1 275/11/1 276/2/1
f 277/17/1 278/21/1 279/11/1 280/2/1
f 281/17/1 282/21/1 283/11/1 284/2/1
f 285/17/1 286/21/1 287/11/1 288/2/1
f 289/17/1 290/21/1 291/11/1 292/2/1
f 293/17/1 294/21/1 295/11/1 296/2/1
f 297/2/1 298/11/1 299/12/1 300/3/1
f 301/13/1 302/14/1 303/6/1 304/5/1
f 305/14/1 306/15/1 307/9/1 308/6/1
f 309/13/1 310/14/1 311/6/1 312/5/1
f 313/22/1 314/23/1 315/21/1 316/17/1
f 317/22/1 318/23/1 319/21/1 320/17/1
f 321/22/1 322/23/1 323/21/1 324/17/1
f 325/17/1 326/21/1 327/11/1 328/2/1
f 329/17/1 330/21/1 331/11/1 332/2/1
f 333/17/1 334/21/1 335/11/1 336/2/1
f 337/17/1 338/21/1 339/11/1 340/2/1
f 341/22/1 342/23/1 343/21/1 344/17/1
f 345/22/1 346/23/1 347/21/1 348/17/1
f 349/22/1 350/23/1 351/21/1 352/17/1
f 353/22/1 354/23/1 355/21/1 356/17/1
f 357/22/1 358/23/1 359/21/1 360/17/1
f 361/22/1 362/23/1 363/21/1 364/17/1
f 365/17/1 366/21/1 367/11/1 368/2/1
f 369/18/1 370/19/1 371/14/1 372/13/1
f 373/19/1 374/20/1 375/15/1 376/14/1
f 377/18/1 378/19/1 379/14/1 380/13/1
f 381/1/1 382/2/1 383/3/1 384/4/1
f 385/24/1 386/22/1 387/17/1 388/16/1
f 389/22/1 390/23/1 391/21/1 392/17/1
f 393/22/1 394/23/1 395/21/1 396/17/1
f 397/22/1 398/23/1 399/21/1 400/17/1
f 401/22/1 402/23/1 403/21/1 404/17/1
f 405/22/1 406/23/1 407/21/1 408/17/1
f 409/1/1 410/2/1 411/3/1 412/4/1
f 413/16/1 414/17/1 415/2/1 416/1/1
f 417/16/1 418/17/1 419/2/1 420/1/1
f 421/24/1 422/22/1 423/17/1 424/16/1
f 425/24/1 426/22/1 427/17/1 428/16/1
f 429/22/1 430/23/1 431/21/1 432/17/1
f 433/22/1 434/23/1 435/21/1 436/17/1
f 437/5/1 438/6/1 439/7/1 440/8/1
f 441/6/1 442/9/1 443/10/1 444/7/1
f 445/5/1 446/6/1 447/7/1 448/8/1
f 449/16/1 450/17/1 451/2/1 452/1/1
f 453/16/1 454/17/1 455/2/1 456/1/1
f 457/16/1 458/17/1 459/2/1 460/1/1
f 461/24/1 462/22/1 463/17/1 464/16/1
f 465/24/1 466/22/1 467/17/1 468/16/1
f 469/24/1 470/22/1 471/17/1 472/16/1
f 473/22/1 474/23/1 475/21/1 476/17/1
f 477/2/1 478/11/1 479/12/1 480/3/1
f 481/24/1 482/22/1 483/17/1 484/16/1
f 485/24/1 486/22/1 487/17/1 488/16/1
f 489/24/1 490/22/1 491/17/1 492/16/1
f 493/22/1 494/23/1 495/21/1 496/17/1
f 497/22/1 498/23/1 499/21/1 500/17/1
f 501/24/1 502/22/1 503/17/1 504/16/1
f 505/13/1 506/14/1 507/6/1 508/5/1
f 509/14/1 510/15/1 511/9/1 512/6/1
f 513/13/1 514/14/1 515/6/1 516/5/1
f 517/24/1 518/22/1 519/17/1 520/16/1
f 521/24/1 522/22/1 523/17/1 524/16/1
f 525/24/1 526/22/1 527/17/1 528/16/1
f 529/24/1 530/22/1 531/17/1 532/16/1
f 533/22/1 534/23/1 535/21/1 536/17/1
f 537/2/1 538/11/1 539/12/1 540/3/1
f 541/2/1 542/11/1 543/12/1 544/3/1
f 545/17/1 546/21/1 547/11/1 548/2/1
f 549/1/1 550/2/1 551/3/1 552/4/1
f 553/1/1 554/2/1 555/3/1 556/4/1
f 557/1/1 558/2/1 559/3/1 560/4/1
f 561/2/1 562/11/1 563/12/1 564/3/1
f 565/24/1 566/22/1 567/17/1 568/16/1
f 569/22/1 570/23/1 571/21/1 572/17/1
f 573/18/1 574/19/1 575/14/1 576/13/1
f 577/19/1 578/20/1 579/15/1 580/14/1
f 581/18/1 582/19/1 583/14/1 584/13/1
f 585/17/1 586/21/1 587/11/1 588/2/1
f 589/17/1 590/21/1 591/11/1 592/2/1
f 593/17/1 594/21/1 595/11/1 596/2/1
f 597/17/1 598/21/1 599/11/1 600/2/1
f 601/17/1 602/21/1 603/11/1 604/2/1
f 605/17/1 606/21/1 607/11/1 608/2/1
f 609/17/1 610/21/1 611/11/1 612/2/1
f 613/22/1 614/23/1 615/21/1 616/17/1
f 617/1/1 618/2/1 619/3/1 620/4/1
f 621/1/1 622/2/1 623/3/1 624/4/1
f 625/1/1 626/2/1 627/3/1 628/4/1
f 629/1/1 630/2/1 631/3/1 632/4/1
f 633/1/1 634/2/1 635/3/1 636/4/1
f 637/1/1 638/2/1 639/3/1 640/4/1
f 641/5/1 642/6/1 643/7/1 644/8/1
f 645/6/1 646/9/1 647/10/1 648/7/1
f 649/5/1 650/6/1 651/7/1 652/8/1
f 653/1/1 654/2/1 655/3/1 656/4/1
f 657/1/1 658/2/1 659/3/1 660/4/1
f 661/1/1 662/2/1 663/3/1 664/4/1
f 665/2/1 666/11/1 667/12/1 668/3/1
f 669/2/1 670/11/1 671/12/1 672/3/1
f 673/2/1 674/11/1 675/12/1 676/3/1
f 677/2/1 678/11/1 679/12/1 680/3/1
f 681/2/1 682/11/1 683/12/1 684/3/1
f 685/2/1 686/11/1 687/12/1 688/3/1
f 689/2/1 690/11/1 691/12/1 692/3/1
f 693/2/1 694/11/1 695/12/1 696/3/1
f 697/2/1 698/11/1 699/12/1 700/3/1
f 701/2/1 702/11/1 703/12/1 704/3/1
f 705/2/1 706/11/1 707/12/1 708/3/1
f 709/13/1 710/14/1 711/6/1 712/5/1
f 713/14/1 714/15/1 715/9/1 716/6/1
f 717/13/1 718/14/1 719/6/1 720/5/1
f 721/2/1 722/11/1 723/12/1 724/3/1
f 725/2/1 726/11/1 727/12/1 728/3/1
f 729/2/1 730/11/1 731/12/1 732/3/1
f 733/2/1 734/11/1 735/12/1 736/3/1
f 737/17/1 738/21/1 739/11/1 740/2/1
f 741/17/1 742/21/1 743/11/1 744/2/1
f 745/2/1 746/11/1 747/12/1 748/3/1
f 749/17/1 750/21/1 751/11/1 752/2/1
f 753/17/1 754/21/1 755/11/1 756/2/1
f 757/17/1 758/21/1 759/11/1 760/2/1
f 761/17/1 762/21/1 763/11/1 764/2/1
f 765/17/1 766/21/1 767/11/1 768/2/1
f 769/17/1 770/21/1 771/11/1 772/2/1
f 773/17/1 774/21/1 775/11/1 776/2/1
f 777/18/1 778/19/1 779/14/1 780/13/1
f 781/19/1 782/20/1 783/15/1 784/14/1
f 785/18/1 786/19/1 787/14/1 788/13/1
f 789/17/1 790/21/1 791/11/1 792/2/1
f 793/17/1 794/21/1 795/11/1 796/2/1
f 797/17/1 798/21/1 799/11/1 800/2/1
f 801/17/1 802/21/1 803/11/1 804/2/1
f 805/22/1 806/23/1 807/21/1 808/17/1
f 809/22/1 810/23/1 811/21/1 812/17/1
f 813/17/1 814/21/1 815/11/1 816/2/1
f 817/22/1 818/23/1 819/21/1 820/17/1
f 821/22/1 822/23/1 823/21/1 824/17/1
f 825/22/1 826/23/1 827/21/1 828/17/1
f 829/22/1 830/23/1 831/21/1 832/17/1
f 833/22/1 834/23/1 835/21/1 836/17/1
f 837/22/1 838/23/1 839/21/1 840/17/1
f 841/22/1 842/23/1 843/21/1 844/17/1
f 845/5/1 846/6/1 847/7/1 848/8/1
f 849/6/1 850/9/1 851/10/1 852/7/1
f 853/5/1 854/6/1 855/7/1 856/8/1
f 857/22/1 858/23/1 859/21/1 860/17/1
f 861/22/1 862/23/1 863/21/1 864/17/1
f 865/22/1 866/23/1 867/21/1 868/17/1
f 869/22/1 870/23/1 871/21/1 872/17/1
f 873/22/1 874/23/1 875/21/1 876/17/1
f 877/22/1 878/23/1 879/21/1 880/17/1
f 881/22/1 882/23/1 883/21/1 884/17/1

