# Tiled2Unity generated file. Do not modify by hand.
# Wavefront file for 'School-1F-Center_mesh_0001.obj'

# Vertices (Count = 884)
v 0 -48 0
v -48 -48 0
v -48 0 0
v 0 0 0
v -48 -48 0
v -96 -48 0
v -96 0 0
v -48 0 0
v -96 -48 0
v -144 -48 0
v -144 0 0
v -96 0 0
v -144 -48 0
v -192 -48 0
v -192 0 0
v -144 0 0
v -192 -48 0
v -240 -48 0
v -240 0 0
v -192 0 0
v -240 -48 0
v -288 -48 0
v -288 0 0
v -240 0 0
v -288 -48 0
v -336 -48 0
v -336 0 0
v -288 0 0
v -336 -48 0
v -384 -48 0
v -384 0 0
v -336 0 0
v -384 -48 0
v -432 -48 0
v -432 0 0
v -384 0 0
v -432 -48 0
v -480 -48 0
v -480 0 0
v -432 0 0
v -480 -48 0
v -528 -48 0
v -528 0 0
v -480 0 0
v -528 -48 0
v -576 -48 0
v -576 0 0
v -528 0 0
v -576 -48 0
v -624 -48 0
v -624 0 0
v -576 0 0
v -624 -48 0
v -672 -48 0
v -672 0 0
v -624 0 0
v -672 -48 0
v -720 -48 0
v -720 0 0
v -672 0 0
v -720 -48 0
v -768 -48 0
v -768 0 0
v -720 0 0
v -768 -48 0
v -816 -48 0
v -816 0 0
v -768 0 0
v 0 -96 0
v -48 -96 0
v -48 -48 0
v 0 -48 0
v -48 -96 0
v -96 -96 0
v -96 -48 0
v -48 -48 0
v -96 -96 0
v -144 -96 0
v -144 -48 0
v -96 -48 0
v -144 -96 0
v -192 -96 0
v -192 -48 0
v -144 -48 0
v -192 -96 0
v -240 -96 0
v -240 -48 0
v -192 -48 0
v -240 -96 0
v -288 -96 0
v -288 -48 0
v -240 -48 0
v -288 -96 0
v -336 -96 0
v -336 -48 0
v -288 -48 0
v -336 -96 0
v -384 -96 0
v -384 -48 0
v -336 -48 0
v -384 -96 0
v -432 -96 0
v -432 -48 0
v -384 -48 0
v -432 -96 0
v -480 -96 0
v -480 -48 0
v -432 -48 0
v -480 -96 0
v -528 -96 0
v -528 -48 0
v -480 -48 0
v -528 -96 0
v -576 -96 0
v -576 -48 0
v -528 -48 0
v -576 -96 0
v -624 -96 0
v -624 -48 0
v -576 -48 0
v -624 -96 0
v -672 -96 0
v -672 -48 0
v -624 -48 0
v -672 -96 0
v -720 -96 0
v -720 -48 0
v -672 -48 0
v -720 -96 0
v -768 -96 0
v -768 -48 0
v -720 -48 0
v -768 -96 0
v -816 -96 0
v -816 -48 0
v -768 -48 0
v 0 -144 0
v -48 -144 0
v -48 -96 0
v 0 -96 0
v -48 -144 0
v -96 -144 0
v -96 -96 0
v -48 -96 0
v -96 -144 0
v -144 -144 0
v -144 -96 0
v -96 -96 0
v -144 -144 0
v -192 -144 0
v -192 -96 0
v -144 -96 0
v -192 -144 0
v -240 -144 0
v -240 -96 0
v -192 -96 0
v -240 -144 0
v -288 -144 0
v -288 -96 0
v -240 -96 0
v -288 -144 0
v -336 -144 0
v -336 -96 0
v -288 -96 0
v -336 -144 0
v -384 -144 0
v -384 -96 0
v -336 -96 0
v -384 -144 0
v -432 -144 0
v -432 -96 0
v -384 -96 0
v -432 -144 0
v -480 -144 0
v -480 -96 0
v -432 -96 0
v -480 -144 0
v -528 -144 0
v -528 -96 0
v -480 -96 0
v -528 -144 0
v -576 -144 0
v -576 -96 0
v -528 -96 0
v -576 -144 0
v -624 -144 0
v -624 -96 0
v -576 -96 0
v -624 -144 0
v -672 -144 0
v -672 -96 0
v -624 -96 0
v -672 -144 0
v -720 -144 0
v -720 -96 0
v -672 -96 0
v -720 -144 0
v -768 -144 0
v -768 -96 0
v -720 -96 0
v -768 -144 0
v -816 -144 0
v -816 -96 0
v -768 -96 0
v 0 -192 0
v -48 -192 0
v -48 -144 0
v 0 -144 0
v -48 -192 0
v -96 -192 0
v -96 -144 0
v -48 -144 0
v -96 -192 0
v -144 -192 0
v -144 -144 0
v -96 -144 0
v -144 -192 0
v -192 -192 0
v -192 -144 0
v -144 -144 0
v -192 -192 0
v -240 -192 0
v -240 -144 0
v -192 -144 0
v -240 -192 0
v -288 -192 0
v -288 -144 0
v -240 -144 0
v -288 -192 0
v -336 -192 0
v -336 -144 0
v -288 -144 0
v -336 -192 0
v -384 -192 0
v -384 -144 0
v -336 -144 0
v -384 -192 0
v -432 -192 0
v -432 -144 0
v -384 -144 0
v -432 -192 0
v -480 -192 0
v -480 -144 0
v -432 -144 0
v -480 -192 0
v -528 -192 0
v -528 -144 0
v -480 -144 0
v -528 -192 0
v -576 -192 0
v -576 -144 0
v -528 -144 0
v -576 -192 0
v -624 -192 0
v -624 -144 0
v -576 -144 0
v -624 -192 0
v -672 -192 0
v -672 -144 0
v -624 -144 0
v -672 -192 0
v -720 -192 0
v -720 -144 0
v -672 -144 0
v -720 -192 0
v -768 -192 0
v -768 -144 0
v -720 -144 0
v -768 -192 0
v -816 -192 0
v -816 -144 0
v -768 -144 0
v 0 -240 0
v -48 -240 0
v -48 -192 0
v 0 -192 0
v -48 -240 0
v -96 -240 0
v -96 -192 0
v -48 -192 0
v -96 -240 0
v -144 -240 0
v -144 -192 0
v -96 -192 0
v -144 -240 0
v -192 -240 0
v -192 -192 0
v -144 -192 0
v -192 -240 0
v -240 -240 0
v -240 -192 0
v -192 -192 0
v -240 -240 0
v -288 -240 0
v -288 -192 0
v -240 -192 0
v -288 -240 0
v -336 -240 0
v -336 -192 0
v -288 -192 0
v -336 -240 0
v -384 -240 0
v -384 -192 0
v -336 -192 0
v -384 -240 0
v -432 -240 0
v -432 -192 0
v -384 -192 0
v -432 -240 0
v -480 -240 0
v -480 -192 0
v -432 -192 0
v -480 -240 0
v -528 -240 0
v -528 -192 0
v -480 -192 0
v -528 -240 0
v -576 -240 0
v -576 -192 0
v -528 -192 0
v -576 -240 0
v -624 -240 0
v -624 -192 0
v -576 -192 0
v -624 -240 0
v -672 -240 0
v -672 -192 0
v -624 -192 0
v -672 -240 0
v -720 -240 0
v -720 -192 0
v -672 -192 0
v -720 -240 0
v -768 -240 0
v -768 -192 0
v -720 -192 0
v -768 -240 0
v -816 -240 0
v -816 -192 0
v -768 -192 0
v 0 -288 0
v -48 -288 0
v -48 -240 0
v 0 -240 0
v -48 -288 0
v -96 -288 0
v -96 -240 0
v -48 -240 0
v -96 -288 0
v -144 -288 0
v -144 -240 0
v -96 -240 0
v -144 -288 0
v -192 -288 0
v -192 -240 0
v -144 -240 0
v -192 -288 0
v -240 -288 0
v -240 -240 0
v -192 -240 0
v -240 -288 0
v -288 -288 0
v -288 -240 0
v -240 -240 0
v -288 -288 0
v -336 -288 0
v -336 -240 0
v -288 -240 0
v -336 -288 0
v -384 -288 0
v -384 -240 0
v -336 -240 0
v -384 -288 0
v -432 -288 0
v -432 -240 0
v -384 -240 0
v -432 -288 0
v -480 -288 0
v -480 -240 0
v -432 -240 0
v -480 -288 0
v -528 -288 0
v -528 -240 0
v -480 -240 0
v -528 -288 0
v -576 -288 0
v -576 -240 0
v -528 -240 0
v -576 -288 0
v -624 -288 0
v -624 -240 0
v -576 -240 0
v -624 -288 0
v -672 -288 0
v -672 -240 0
v -624 -240 0
v -672 -288 0
v -720 -288 0
v -720 -240 0
v -672 -240 0
v -720 -288 0
v -768 -288 0
v -768 -240 0
v -720 -240 0
v -768 -288 0
v -816 -288 0
v -816 -240 0
v -768 -240 0
v 0 -336 0
v -48 -336 0
v -48 -288 0
v 0 -288 0
v -48 -336 0
v -96 -336 0
v -96 -288 0
v -48 -288 0
v -96 -336 0
v -144 -336 0
v -144 -288 0
v -96 -288 0
v -144 -336 0
v -192 -336 0
v -192 -288 0
v -144 -288 0
v -192 -336 0
v -240 -336 0
v -240 -288 0
v -192 -288 0
v -240 -336 0
v -288 -336 0
v -288 -288 0
v -240 -288 0
v -288 -336 0
v -336 -336 0
v -336 -288 0
v -288 -288 0
v -336 -336 0
v -384 -336 0
v -384 -288 0
v -336 -288 0
v -384 -336 0
v -432 -336 0
v -432 -288 0
v -384 -288 0
v -432 -336 0
v -480 -336 0
v -480 -288 0
v -432 -288 0
v -480 -336 0
v -528 -336 0
v -528 -288 0
v -480 -288 0
v -528 -336 0
v -576 -336 0
v -576 -288 0
v -528 -288 0
v -576 -336 0
v -624 -336 0
v -624 -288 0
v -576 -288 0
v -624 -336 0
v -672 -336 0
v -672 -288 0
v -624 -288 0
v -672 -336 0
v -720 -336 0
v -720 -288 0
v -672 -288 0
v -720 -336 0
v -768 -336 0
v -768 -288 0
v -720 -288 0
v -768 -336 0
v -816 -336 0
v -816 -288 0
v -768 -288 0
v 0 -384 0
v -48 -384 0
v -48 -336 0
v 0 -336 0
v -48 -384 0
v -96 -384 0
v -96 -336 0
v -48 -336 0
v -96 -384 0
v -144 -384 0
v -144 -336 0
v -96 -336 0
v -144 -384 0
v -192 -384 0
v -192 -336 0
v -144 -336 0
v -192 -384 0
v -240 -384 0
v -240 -336 0
v -192 -336 0
v -240 -384 0
v -288 -384 0
v -288 -336 0
v -240 -336 0
v -288 -384 0
v -336 -384 0
v -336 -336 0
v -288 -336 0
v -336 -384 0
v -384 -384 0
v -384 -336 0
v -336 -336 0
v -384 -384 0
v -432 -384 0
v -432 -336 0
v -384 -336 0
v -432 -384 0
v -480 -384 0
v -480 -336 0
v -432 -336 0
v -480 -384 0
v -528 -384 0
v -528 -336 0
v -480 -336 0
v -528 -384 0
v -576 -384 0
v -576 -336 0
v -528 -336 0
v -576 -384 0
v -624 -384 0
v -624 -336 0
v -576 -336 0
v -624 -384 0
v -672 -384 0
v -672 -336 0
v -624 -336 0
v -672 -384 0
v -720 -384 0
v -720 -336 0
v -672 -336 0
v -720 -384 0
v -768 -384 0
v -768 -336 0
v -720 -336 0
v -768 -384 0
v -816 -384 0
v -816 -336 0
v -768 -336 0
v 0 -432 0
v -48 -432 0
v -48 -384 0
v 0 -384 0
v -48 -432 0
v -96 -432 0
v -96 -384 0
v -48 -384 0
v -96 -432 0
v -144 -432 0
v -144 -384 0
v -96 -384 0
v -144 -432 0
v -192 -432 0
v -192 -384 0
v -144 -384 0
v -192 -432 0
v -240 -432 0
v -240 -384 0
v -192 -384 0
v -240 -432 0
v -288 -432 0
v -288 -384 0
v -240 -384 0
v -288 -432 0
v -336 -432 0
v -336 -384 0
v -288 -384 0
v -336 -432 0
v -384 -432 0
v -384 -384 0
v -336 -384 0
v -384 -432 0
v -432 -432 0
v -432 -384 0
v -384 -384 0
v -432 -432 0
v -480 -432 0
v -480 -384 0
v -432 -384 0
v -480 -432 0
v -528 -432 0
v -528 -384 0
v -480 -384 0
v -528 -432 0
v -576 -432 0
v -576 -384 0
v -528 -384 0
v -576 -432 0
v -624 -432 0
v -624 -384 0
v -576 -384 0
v -624 -432 0
v -672 -432 0
v -672 -384 0
v -624 -384 0
v -672 -432 0
v -720 -432 0
v -720 -384 0
v -672 -384 0
v -720 -432 0
v -768 -432 0
v -768 -384 0
v -720 -384 0
v -768 -432 0
v -816 -432 0
v -816 -384 0
v -768 -384 0
v 0 -480 0
v -48 -480 0
v -48 -432 0
v 0 -432 0
v -48 -480 0
v -96 -480 0
v -96 -432 0
v -48 -432 0
v -96 -480 0
v -144 -480 0
v -144 -432 0
v -96 -432 0
v -144 -480 0
v -192 -480 0
v -192 -432 0
v -144 -432 0
v -192 -480 0
v -240 -480 0
v -240 -432 0
v -192 -432 0
v -240 -480 0
v -288 -480 0
v -288 -432 0
v -240 -432 0
v -288 -480 0
v -336 -480 0
v -336 -432 0
v -288 -432 0
v -336 -480 0
v -384 -480 0
v -384 -432 0
v -336 -432 0
v -384 -480 0
v -432 -480 0
v -432 -432 0
v -384 -432 0
v -432 -480 0
v -480 -480 0
v -480 -432 0
v -432 -432 0
v -480 -480 0
v -528 -480 0
v -528 -432 0
v -480 -432 0
v -528 -480 0
v -576 -480 0
v -576 -432 0
v -528 -432 0
v -576 -480 0
v -624 -480 0
v -624 -432 0
v -576 -432 0
v -624 -480 0
v -672 -480 0
v -672 -432 0
v -624 -432 0
v -672 -480 0
v -720 -480 0
v -720 -432 0
v -672 -432 0
v -720 -480 0
v -768 -480 0
v -768 -432 0
v -720 -432 0
v -768 -480 0
v -816 -480 0
v -816 -432 0
v -768 -432 0
v 0 -528 0
v -48 -528 0
v -48 -480 0
v 0 -480 0
v -48 -528 0
v -96 -528 0
v -96 -480 0
v -48 -480 0
v -96 -528 0
v -144 -528 0
v -144 -480 0
v -96 -480 0
v -144 -528 0
v -192 -528 0
v -192 -480 0
v -144 -480 0
v -192 -528 0
v -240 -528 0
v -240 -480 0
v -192 -480 0
v -240 -528 0
v -288 -528 0
v -288 -480 0
v -240 -480 0
v -288 -528 0
v -336 -528 0
v -336 -480 0
v -288 -480 0
v -336 -528 0
v -384 -528 0
v -384 -480 0
v -336 -480 0
v -384 -528 0
v -432 -528 0
v -432 -480 0
v -384 -480 0
v -432 -528 0
v -480 -528 0
v -480 -480 0
v -432 -480 0
v -480 -528 0
v -528 -528 0
v -528 -480 0
v -480 -480 0
v -528 -528 0
v -576 -528 0
v -576 -480 0
v -528 -480 0
v -576 -528 0
v -624 -528 0
v -624 -480 0
v -576 -480 0
v -624 -528 0
v -672 -528 0
v -672 -480 0
v -624 -480 0
v -672 -528 0
v -720 -528 0
v -720 -480 0
v -672 -480 0
v -720 -528 0
v -768 -528 0
v -768 -480 0
v -720 -480 0
v -768 -528 0
v -816 -528 0
v -816 -480 0
v -768 -480 0
v 0 -576 0
v -48 -576 0
v -48 -528 0
v 0 -528 0
v -48 -576 0
v -96 -576 0
v -96 -528 0
v -48 -528 0
v -96 -576 0
v -144 -576 0
v -144 -528 0
v -96 -528 0
v -144 -576 0
v -192 -576 0
v -192 -528 0
v -144 -528 0
v -192 -576 0
v -240 -576 0
v -240 -528 0
v -192 -528 0
v -240 -576 0
v -288 -576 0
v -288 -528 0
v -240 -528 0
v -288 -576 0
v -336 -576 0
v -336 -528 0
v -288 -528 0
v -336 -576 0
v -384 -576 0
v -384 -528 0
v -336 -528 0
v -384 -576 0
v -432 -576 0
v -432 -528 0
v -384 -528 0
v -432 -576 0
v -480 -576 0
v -480 -528 0
v -432 -528 0
v -480 -576 0
v -528 -576 0
v -528 -528 0
v -480 -528 0
v -528 -576 0
v -576 -576 0
v -576 -528 0
v -528 -528 0
v -576 -576 0
v -624 -576 0
v -624 -528 0
v -576 -528 0
v -624 -576 0
v -672 -576 0
v -672 -528 0
v -624 -528 0
v -672 -576 0
v -720 -576 0
v -720 -528 0
v -672 -528 0
v -720 -576 0
v -768 -576 0
v -768 -528 0
v -720 -528 0
v -768 -576 0
v -816 -576 0
v -816 -528 0
v -768 -528 0
v 0 -624 0
v -48 -624 0
v -48 -576 0
v 0 -576 0
v -48 -624 0
v -96 -624 0
v -96 -576 0
v -48 -576 0
v -96 -624 0
v -144 -624 0
v -144 -576 0
v -96 -576 0
v -144 -624 0
v -192 -624 0
v -192 -576 0
v -144 -576 0
v -192 -624 0
v -240 -624 0
v -240 -576 0
v -192 -576 0
v -240 -624 0
v -288 -624 0
v -288 -576 0
v -240 -576 0
v -288 -624 0
v -336 -624 0
v -336 -576 0
v -288 -576 0
v -336 -624 0
v -384 -624 0
v -384 -576 0
v -336 -576 0
v -384 -624 0
v -432 -624 0
v -432 -576 0
v -384 -576 0
v -432 -624 0
v -480 -624 0
v -480 -576 0
v -432 -576 0
v -480 -624 0
v -528 -624 0
v -528 -576 0
v -480 -576 0
v -528 -624 0
v -576 -624 0
v -576 -576 0
v -528 -576 0
v -576 -624 0
v -624 -624 0
v -624 -576 0
v -576 -576 0
v -624 -624 0
v -672 -624 0
v -672 -576 0
v -624 -576 0
v -672 -624 0
v -720 -624 0
v -720 -576 0
v -672 -576 0
v -720 -624 0
v -768 -624 0
v -768 -576 0
v -720 -576 0
v -768 -624 0
v -816 -624 0
v -816 -576 0
v -768 -576 0

# Texture cooridinates (Count = 35)
vt 0.125 0.875
vt 0.25 0.875
vt 0.25 0.9375
vt 0.125 0.9375
vt 0.375 0.875
vt 0.375 0.9375
vt 0 0.9375
vt 0.125 1
vt 0 1
vt 0.5 0.9375
vt 0.5 1
vt 0.375 1
vt 0.625 0.9375
vt 0.625 1
vt 0.75 0.9375
vt 0.75 1
vt 0 0.875
vt 0.125 0.8125
vt 0.25 0.8125
vt 0.375 0.8125
vt 0 0.8125
vt 0.5 0.8125
vt 0.625 0.8125
vt 0.625 0.875
vt 0.5 0.875
vt 0.75 0.8125
vt 0.75 0.875
vt 0.125 0.75
vt 0.25 0.75
vt 0.375 0.75
vt 0 0.75
vt 0.5 0.75
vt 0.625 0.75
vt 0.75 0.75
vt 0.25 1

# Normal
vn 0 0 -1

# Mesh description
g School-1F-Center_mesh_0001

# Faces
f 1/1/1 2/2/1 3/3/1 4/4/1
f 5/1/1 6/2/1 7/3/1 8/4/1
f 9/1/1 10/2/1 11/3/1 12/4/1
f 13/1/1 14/2/1 15/3/1 16/4/1
f 17/1/1 18/2/1 19/3/1 20/4/1
f 21/2/1 22/5/1 23/6/1 24/3/1
f 25/7/1 26/4/1 27/8/1 28/9/1
f 29/7/1 30/4/1 31/8/1 32/9/1
f 33/6/1 34/10/1 35/11/1 36/12/1
f 37/10/1 38/13/1 39/14/1 40/11/1
f 41/13/1 42/15/1 43/16/1 44/14/1
f 45/17/1 46/1/1 47/4/1 48/7/1
f 49/1/1 50/2/1 51/3/1 52/4/1
f 53/1/1 54/2/1 55/3/1 56/4/1
f 57/1/1 58/2/1 59/3/1 60/4/1
f 61/1/1 62/2/1 63/3/1 64/4/1
f 65/1/1 66/2/1 67/3/1 68/4/1
f 69/18/1 70/19/1 71/2/1 72/1/1
f 73/18/1 74/19/1 75/2/1 76/1/1
f 77/18/1 78/19/1 79/2/1 80/1/1
f 81/18/1 82/19/1 83/2/1 84/1/1
f 85/18/1 86/19/1 87/2/1 88/1/1
f 89/19/1 90/20/1 91/5/1 92/2/1
f 93/7/1 94/4/1 95/8/1 96/9/1
f 97/7/1 98/4/1 99/8/1 100/9/1
f 101/6/1 102/10/1 103/11/1 104/12/1
f 105/10/1 106/13/1 107/14/1 108/11/1
f 109/13/1 110/15/1 111/16/1 112/14/1
f 113/21/1 114/18/1 115/1/1 116/17/1
f 117/22/1 118/23/1 119/24/1 120/25/1
f 121/18/1 122/19/1 123/2/1 124/1/1
f 125/18/1 126/19/1 127/2/1 128/1/1
f 129/23/1 130/26/1 131/27/1 132/24/1
f 133/18/1 134/19/1 135/2/1 136/1/1
f 137/28/1 138/29/1 139/19/1 140/18/1
f 141/28/1 142/29/1 143/19/1 144/18/1
f 145/28/1 146/29/1 147/19/1 148/18/1
f 149/28/1 150/29/1 151/19/1 152/18/1
f 153/28/1 154/29/1 155/19/1 156/18/1
f 157/29/1 158/30/1 159/20/1 160/19/1
f 161/7/1 162/4/1 163/8/1 164/9/1
f 165/7/1 166/4/1 167/8/1 168/9/1
f 169/6/1 170/10/1 171/11/1 172/12/1
f 173/10/1 174/13/1 175/14/1 176/11/1
f 177/13/1 178/15/1 179/16/1 180/14/1
f 181/31/1 182/28/1 183/18/1 184/21/1
f 185/32/1 186/33/1 187/23/1 188/22/1
f 189/28/1 190/29/1 191/19/1 192/18/1
f 193/28/1 194/29/1 195/19/1 196/18/1
f 197/33/1 198/34/1 199/26/1 200/23/1
f 201/28/1 202/29/1 203/19/1 204/18/1
f 205/7/1 206/4/1 207/8/1 208/9/1
f 209/7/1 210/4/1 211/8/1 212/9/1
f 213/4/1 214/3/1 215/35/1 216/8/1
f 217/7/1 218/4/1 219/8/1 220/9/1
f 221/4/1 222/3/1 223/35/1 224/8/1
f 225/4/1 226/3/1 227/35/1 228/8/1
f 229/7/1 230/4/1 231/8/1 232/9/1
f 233/4/1 234/3/1 235/35/1 236/8/1
f 237/5/1 238/25/1 239/10/1 240/6/1
f 241/25/1 242/24/1 243/13/1 244/10/1
f 245/24/1 246/27/1 247/15/1 248/13/1
f 249/7/1 250/4/1 251/8/1 252/9/1
f 253/7/1 254/4/1 255/8/1 256/9/1
f 257/7/1 258/4/1 259/8/1 260/9/1
f 261/7/1 262/4/1 263/8/1 264/9/1
f 265/7/1 266/4/1 267/8/1 268/9/1
f 269/7/1 270/4/1 271/8/1 272/9/1
f 273/7/1 274/4/1 275/8/1 276/9/1
f 277/7/1 278/4/1 279/8/1 280/9/1
f 281/4/1 282/3/1 283/35/1 284/8/1
f 285/4/1 286/3/1 287/35/1 288/8/1
f 289/7/1 290/4/1 291/8/1 292/9/1
f 293/4/1 294/3/1 295/35/1 296/8/1
f 297/7/1 298/4/1 299/8/1 300/9/1
f 301/4/1 302/3/1 303/35/1 304/8/1
f 305/7/1 306/4/1 307/8/1 308/9/1
f 309/4/1 310/3/1 311/35/1 312/8/1
f 313/7/1 314/4/1 315/8/1 316/9/1
f 317/4/1 318/3/1 319/35/1 320/8/1
f 321/7/1 322/4/1 323/8/1 324/9/1
f 325/4/1 326/3/1 327/35/1 328/8/1
f 329/4/1 330/3/1 331/35/1 332/8/1
f 333/4/1 334/3/1 335/35/1 336/8/1
f 337/4/1 338/3/1 339/35/1 340/8/1
f 341/7/1 342/4/1 343/8/1 344/9/1
f 345/7/1 346/4/1 347/8/1 348/9/1
f 349/4/1 350/3/1 351/35/1 352/8/1
f 353/4/1 354/3/1 355/35/1 356/8/1
f 357/7/1 358/4/1 359/8/1 360/9/1
f 361/4/1 362/3/1 363/35/1 364/8/1
f 365/7/1 366/4/1 367/8/1 368/9/1
f 369/4/1 370/3/1 371/35/1 372/8/1
f 373/7/1 374/4/1 375/8/1 376/9/1
f 377/4/1 378/3/1 379/35/1 380/8/1
f 381/7/1 382/4/1 383/8/1 384/9/1
f 385/4/1 386/3/1 387/35/1 388/8/1
f 389/7/1 390/4/1 391/8/1 392/9/1
f 393/4/1 394/3/1 395/35/1 396/8/1
f 397/7/1 398/4/1 399/8/1 400/9/1
f 401/4/1 402/3/1 403/35/1 404/8/1
f 405/4/1 406/3/1 407/35/1 408/8/1
f 409/7/1 410/4/1 411/8/1 412/9/1
f 413/4/1 414/3/1 415/35/1 416/8/1
f 417/7/1 418/4/1 419/8/1 420/9/1
f 421/4/1 422/3/1 423/35/1 424/8/1
f 425/7/1 426/4/1 427/8/1 428/9/1
f 429/4/1 430/3/1 431/35/1 432/8/1
f 433/7/1 434/4/1 435/8/1 436/9/1
f 437/4/1 438/3/1 439/35/1 440/8/1
f 441/7/1 442/4/1 443/8/1 444/9/1
f 445/4/1 446/3/1 447/35/1 448/8/1
f 449/7/1 450/4/1 451/8/1 452/9/1
f 453/4/1 454/3/1 455/35/1 456/8/1
f 457/7/1 458/4/1 459/8/1 460/9/1
f 461/7/1 462/4/1 463/8/1 464/9/1
f 465/4/1 466/3/1 467/35/1 468/8/1
f 469/7/1 470/4/1 471/8/1 472/9/1
f 473/4/1 474/3/1 475/35/1 476/8/1
f 477/7/1 478/4/1 479/8/1 480/9/1
f 481/4/1 482/3/1 483/35/1 484/8/1
f 485/7/1 486/4/1 487/8/1 488/9/1
f 489/4/1 490/3/1 491/35/1 492/8/1
f 493/7/1 494/4/1 495/8/1 496/9/1
f 497/4/1 498/3/1 499/35/1 500/8/1
f 501/7/1 502/4/1 503/8/1 504/9/1
f 505/4/1 506/3/1 507/35/1 508/8/1
f 509/7/1 510/4/1 511/8/1 512/9/1
f 513/4/1 514/3/1 515/35/1 516/8/1
f 517/7/1 518/4/1 519/8/1 520/9/1
f 521/4/1 522/3/1 523/35/1 524/8/1
f 525/7/1 526/4/1 527/8/1 528/9/1
f 529/4/1 530/3/1 531/35/1 532/8/1
f 533/4/1 534/3/1 535/35/1 536/8/1
f 537/7/1 538/4/1 539/8/1 540/9/1
f 541/4/1 542/3/1 543/35/1 544/8/1
f 545/7/1 546/4/1 547/8/1 548/9/1
f 549/4/1 550/3/1 551/35/1 552/8/1
f 553/7/1 554/4/1 555/8/1 556/9/1
f 557/4/1 558/3/1 559/35/1 560/8/1
f 561/7/1 562/4/1 563/8/1 564/9/1
f 565/4/1 566/3/1 567/35/1 568/8/1
f 569/7/1 570/4/1 571/8/1 572/9/1
f 573/7/1 574/4/1 575/8/1 576/9/1
f 577/7/1 578/4/1 579/8/1 580/9/1
f 581/4/1 582/3/1 583/35/1 584/8/1
f 585/7/1 586/4/1 587/8/1 588/9/1
f 589/4/1 590/3/1 591/35/1 592/8/1
f 593/7/1 594/4/1 595/8/1 596/9/1
f 597/7/1 598/4/1 599/8/1 600/9/1
f 601/4/1 602/3/1 603/35/1 604/8/1
f 605/7/1 606/4/1 607/8/1 608/9/1
f 609/4/1 610/3/1 611/35/1 612/8/1
f 613/7/1 614/4/1 615/8/1 616/9/1
f 617/4/1 618/3/1 619/35/1 620/8/1
f 621/7/1 622/4/1 623/8/1 624/9/1
f 625/4/1 626/3/1 627/35/1 628/8/1
f 629/7/1 630/4/1 631/8/1 632/9/1
f 633/4/1 634/3/1 635/35/1 636/8/1
f 637/7/1 638/4/1 639/8/1 640/9/1
f 641/4/1 642/3/1 643/35/1 644/8/1
f 645/7/1 646/4/1 647/8/1 648/9/1
f 649/4/1 650/3/1 651/35/1 652/8/1
f 653/7/1 654/4/1 655/8/1 656/9/1
f 657/7/1 658/4/1 659/8/1 660/9/1
f 661/4/1 662/3/1 663/35/1 664/8/1
f 665/7/1 666/4/1 667/8/1 668/9/1
f 669/4/1 670/3/1 671/35/1 672/8/1
f 673/7/1 674/4/1 675/8/1 676/9/1
f 677/4/1 678/3/1 679/35/1 680/8/1
f 681/1/1 682/2/1 683/3/1 684/4/1
f 685/1/1 686/2/1 687/3/1 688/4/1
f 689/1/1 690/2/1 691/3/1 692/4/1
f 693/1/1 694/2/1 695/3/1 696/4/1
f 697/1/1 698/2/1 699/3/1 700/4/1
f 701/2/1 702/5/1 703/6/1 704/3/1
f 705/7/1 706/4/1 707/8/1 708/9/1
f 709/4/1 710/3/1 711/35/1 712/8/1
f 713/7/1 714/4/1 715/8/1 716/9/1
f 717/4/1 718/3/1 719/35/1 720/8/1
f 721/7/1 722/4/1 723/8/1 724/9/1
f 725/17/1 726/1/1 727/4/1 728/7/1
f 729/1/1 730/2/1 731/3/1 732/4/1
f 733/1/1 734/2/1 735/3/1 736/4/1
f 737/1/1 738/2/1 739/3/1 740/4/1
f 741/1/1 742/2/1 743/3/1 744/4/1
f 745/1/1 746/2/1 747/3/1 748/4/1
f 749/18/1 750/19/1 751/2/1 752/1/1
f 753/18/1 754/19/1 755/2/1 756/1/1
f 757/18/1 758/19/1 759/2/1 760/1/1
f 761/18/1 762/19/1 763/2/1 764/1/1
f 765/18/1 766/19/1 767/2/1 768/1/1
f 769/19/1 770/20/1 771/5/1 772/2/1
f 773/7/1 774/4/1 775/8/1 776/9/1
f 777/4/1 778/3/1 779/35/1 780/8/1
f 781/4/1 782/3/1 783/35/1 784/8/1
f 785/4/1 786/3/1 787/35/1 788/8/1
f 789/7/1 790/4/1 791/8/1 792/9/1
f 793/21/1 794/18/1 795/1/1 796/17/1
f 797/18/1 798/19/1 799/2/1 800/1/1
f 801/18/1 802/19/1 803/2/1 804/1/1
f 805/18/1 806/19/1 807/2/1 808/1/1
f 809/18/1 810/19/1 811/2/1 812/1/1
f 813/18/1 814/19/1 815/2/1 816/1/1
f 817/28/1 818/29/1 819/19/1 820/18/1
f 821/28/1 822/29/1 823/19/1 824/18/1
f 825/28/1 826/29/1 827/19/1 828/18/1
f 829/28/1 830/29/1 831/19/1 832/18/1
f 833/28/1 834/29/1 835/19/1 836/18/1
f 837/29/1 838/30/1 839/20/1 840/19/1
f 841/7/1 842/4/1 843/8/1 844/9/1
f 845/4/1 846/3/1 847/35/1 848/8/1
f 849/7/1 850/4/1 851/8/1 852/9/1
f 853/7/1 854/4/1 855/8/1 856/9/1
f 857/7/1 858/4/1 859/8/1 860/9/1
f 861/31/1 862/28/1 863/18/1 864/21/1
f 865/28/1 866/29/1 867/19/1 868/18/1
f 869/28/1 870/29/1 871/19/1 872/18/1
f 873/28/1 874/29/1 875/19/1 876/18/1
f 877/28/1 878/29/1 879/19/1 880/18/1
f 881/28/1 882/29/1 883/19/1 884/18/1

